#!OML:ASF X:\für Bonn\!DataBase\2005_08_12_Daniel\c3d\Daniel.ASF
:FULLY-SPECIFIED
:DEGREES
122
root 4.3984 16.9104 -0.530448 59.186 -102.375 -101.291
lowerback 42.5475 3.71242 -0.336262
upperback 14.7027 1.09022 -9.1759
thorax -3.76126 -0.150598 -10.0654
lowerneck 17.4726 6.59239 0.404519
upperneck 30.882 5.03166 6.81547
head 6.73652 1.91255 2.11159
rclavicle -3.18055e-015 5.56597e-014
rhumerus -32.993 -5.68337 -90.8504
rradius 50.263
rwrist 2.98254
rhand -23.1776 19.1075
rfingers 7.12502
rthumb 3.27155 -10.8472
lclavicle -3.18055e-015 5.56597e-014
lhumerus -48.4511 29.19 68.0762
lradius 57.3462
lwrist 19.6712
lhand -19.3965 -12.2374
lfingers 7.12502
lthumb 6.9224 17.6294
rfemur 26.9464 3.30467 12.1688
rtibia 32.988
rfoot -15.9793 1.97253
rtoes -5.42488
lfemur -88.1916 10.4995 -31.2463
ltibia 95.2717
lfoot 20.461 7.02446
ltoes -10.4693
123
root 4.41418 16.8934 -0.548698 62.0165 -102.319 -103.141
lowerback 41.8488 3.59108 -0.622448
upperback 14.5282 0.935849 -9.11287
thorax -3.78196 -0.217696 -9.7698
lowerneck 16.9586 6.62738 0.326169
upperneck 31.1851 5.03665 6.90253
head 6.90684 1.92442 2.17221
rclavicle 2.96189e-014 -9.85972e-014
rhumerus -33.6562 -5.53222 -91.1968
rradius 48.4924
rwrist 3.23002
rhand -22.4952 19.0391
rfingers 7.12502
rthumb 3.93058 -10.9044
lclavicle 2.96189e-014 -9.85972e-014
lhumerus -47.9887 27.9503 69.2923
lradius 59.5225
lwrist 19.1197
lhand -19.8191 -12.1635
lfingers 7.12502
lthumb 6.51443 17.7163
rfemur 25.3106 3.185 12.4134
rtibia 34.2063
rfoot -16.6227 1.41567
rtoes -5.76728
lfemur -87.2199 10.1502 -31.4329
ltibia 97.2058
lfoot 21.6165 5.6547
ltoes -10.4804
124
root 4.43398 16.8804 -0.566931 64.9109 -102.272 -104.975
lowerback 41.0961 3.45035 -0.902994
upperback 14.3235 0.76938 -9.05375
thorax -3.81526 -0.288196 -9.47748
lowerneck 16.5127 6.66916 0.209881
upperneck 31.427 5.05167 6.99434
head 7.04525 1.93578 2.23843
rclavicle 3.53837e-014 -5.40694e-014
rhumerus -34.34 -5.28647 -91.5434
rradius 46.6569
rwrist 3.38276
rhand -21.6261 18.8522
rfingers 7.12502
rthumb 4.76984 -11.0742
lclavicle 3.53837e-014 -5.40694e-014
lhumerus -47.5481 26.7249 70.3774
lradius 61.7775
lwrist 18.5325
lhand -20.0333 -12.2891
lfingers 7.12502
lthumb 6.30765 17.597
rfemur 23.5836 3.0156 12.6218
rtibia 35.3917
rfoot -17.2117 0.890868
rtoes -6.23934
lfemur -86.1171 9.75724 -31.5707
ltibia 98.9081
lfoot 22.2797 4.02394
ltoes -11.5931
125
root 4.45624 16.8686 -0.584251 67.8256 -102.239 -106.764
lowerback 40.2707 3.30601 -1.17804
upperback 14.1153 0.610471 -8.99288
thorax -3.82112 -0.352983 -9.18942
lowerneck 16.2026 6.6992 0.114107
upperneck 31.5415 5.07364 7.04599
head 7.12233 1.94842 2.28195
rclavicle 3.29983e-014 4.77083e-014
rhumerus -34.993 -4.99963 -91.8775
rradius 44.7399
rwrist 3.59932
rhand -20.5706 18.4629
rfingers 7.12502
rthumb 5.78889 -11.4381
lclavicle 3.29983e-014 4.77083e-014
lhumerus -47.0247 25.559 71.3657
lradius 63.9913
lwrist 17.8191
lhand -20.0315 -12.6082
lfingers 7.12502
lthumb 6.30936 17.2779
rfemur 21.7889 2.82407 12.8004
rtibia 36.5319
rfoot -17.755 0.415436
rtoes -6.67303
lfemur -84.8578 9.33018 -31.668
ltibia 100.403
lfoot 22.4705 2.36704
ltoes -13.39
126
root 4.47921 16.856 -0.60055 70.6538 -102.198 -108.482
lowerback 39.3761 3.13229 -1.37774
upperback 13.9859 0.451422 -8.95796
thorax -3.8605 -0.419085 -8.93147
lowerneck 16.0731 6.74318 -0.0320117
upperneck 31.5286 5.11379 7.12107
head 7.12523 1.96159 2.33456
rclavicle 2.22639e-014 -5.24792e-014
rhumerus -35.7021 -4.66032 -92.2057
rradius 42.8122
rwrist 3.9266
rhand -19.3712 17.8292
rfingers 7.12502
rthumb 6.94685 -12.0368
lclavicle 2.22639e-014 -5.24792e-014
lhumerus -46.3988 24.4733 72.2014
lradius 66.0167
lwrist 16.9779
lhand -19.8271 -13.1637
lfingers 7.12502
lthumb 6.5067 16.7163
rfemur 20.0265 2.59853 12.9607
rtibia 37.6061
rfoot -18.2439 -0.0187597
rtoes -7.10309
lfemur -83.3619 8.90207 -31.7176
ltibia 101.755
lfoot 22.169 0.821735
ltoes -15.244
127
root 4.50378 16.8445 -0.616352 73.3914 -102.152 -110.147
lowerback 38.5899 2.96678 -1.56593
upperback 13.7795 0.297213 -8.89053
thorax -3.86032 -0.478895 -8.6868
lowerneck 15.9776 6.77231 -0.173353
upperneck 31.4463 5.14619 7.18397
head 7.09957 1.97163 2.37973
rclavicle 2.36554e-014 2.54444e-014
rhumerus -36.347 -4.32028 -92.4916
rradius 40.839
rwrist 4.46418
rhand -18.0248 17.0076
rfingers 7.12502
rthumb 8.24636 -12.8115
lclavicle 2.36554e-014 2.54444e-014
lhumerus -45.6093 23.4412 72.9718
lradius 67.9227
lwrist 16.0133
lhand -19.3871 -13.8466
lfingers 7.12502
lthumb 6.93145 16.0199
rfemur 18.3184 2.40391 13.155
rtibia 38.6296
rfoot -18.709 -0.445175
rtoes -7.50823
lfemur -81.6182 8.47164 -31.7115
ltibia 102.993
lfoot 21.4564 -0.508608
ltoes -16.4208
128
root 4.52873 16.8325 -0.631027 76.1093 -102.084 -111.845
lowerback 37.8496 2.77865 -1.71441
upperback 13.5704 0.126478 -8.80676
thorax -3.87194 -0.546337 -8.44194
lowerneck 15.9578 6.80736 -0.347193
upperneck 31.2848 5.20037 7.20579
head 7.03472 1.98542 2.41271
rclavicle -1.09332e-014 -4.29375e-014
rhumerus -36.9788 -4.02944 -92.713
rradius 38.8454
rwrist 5.4235
rhand -16.6604 16.0878
rfingers 7.12502
rthumb 9.56299 -13.6752
lclavicle -1.09332e-014 -4.29375e-014
lhumerus -44.7692 22.4118 73.6661
lradius 69.7563
lwrist 15.0284
lhand -18.849 -14.6376
lfingers 7.12502
lthumb 7.45093 15.2112
rfemur 16.6858 2.226 13.3917
rtibia 39.6009
rfoot -19.146 -0.876763
rtoes -7.79911
lfemur -79.6397 8.03873 -31.6512
ltibia 104.126
lfoot 20.3432 -1.67636
ltoes -17.1805
129
root 4.55263 16.8178 -0.644256 78.7338 -101.98 -113.454
lowerback 37.0996 2.57969 -1.79131
upperback 13.3589 -0.0310871 -8.71706
thorax -3.87472 -0.604564 -8.23579
lowerneck 16.0212 6.81223 -0.478807
upperneck 31.037 5.23909 7.16247
head 6.93292 1.99201 2.41254
rclavicle -5.96354e-016 5.56597e-014
rhumerus -37.6511 -3.62312 -92.9284
rradius 36.9636
rwrist 6.54321
rhand -15.2771 15.1452
rfingers 7.12502
rthumb 10.8975 -14.552
lclavicle -5.96354e-016 5.56597e-014
lhumerus -43.9249 21.2809 74.3016
lradius 71.6303
lwrist 14.0555
lhand -18.3557 -15.4037
lfingers 7.12502
lthumb 7.92705 14.4277
rfemur 15.0567 2.06403 13.6719
rtibia 40.5623
rfoot -19.5854 -1.287
rtoes -8.07361
lfemur -77.4962 7.62411 -31.5272
ltibia 105.142
lfoot 18.7844 -2.67813
ltoes -18.6642
130
root 4.57543 16.7991 -0.657056 81.3405 -101.855 -115.08
lowerback 36.3621 2.36744 -1.84507
upperback 13.1551 -0.19975 -8.61468
thorax -3.86736 -0.668542 -8.02652
lowerneck 16.1094 6.81201 -0.60227
upperneck 30.7373 5.29348 7.041
head 6.81282 2.00323 2.38308
rclavicle -5.06901e-014 2.22639e-014
rhumerus -38.4006 -3.02855 -93.1619
rradius 35.3486
rwrist 7.85801
rhand -13.8501 14.1549
rfingers 7.12502
rthumb 12.2736 -15.4649
lclavicle -5.06901e-014 2.22639e-014
lhumerus -43.059 20.1219 74.8902
lradius 73.5069
lwrist 13.1954
lhand -17.9505 -16.0524
lfingers 7.12502
lthumb 8.31808 13.7638
rfemur 13.4774 1.96045 14.0137
rtibia 41.4905
rfoot -20.0185 -1.70713
rtoes -8.11092
lfemur -75.2083 7.20093 -31.3241
ltibia 106.038
lfoot 17.006 -3.36405
ltoes -20.4309
131
root 4.59326 16.7736 -0.670181 84.1603 -101.742 -116.972
lowerback 35.6151 2.14689 -1.87473
upperback 12.9809 -0.372383 -8.51042
thorax -3.81829 -0.73454 -7.82912
lowerneck 16.2058 6.78709 -0.695476
upperneck 30.4019 5.32614 6.89494
head 6.68283 2.00701 2.3396
rclavicle 7.7526e-015 5.56597e-014
rhumerus -39.1236 -2.60415 -93.307
rradius 33.8091
rwrist 9.60319
rhand -12.4333 13.377
rfingers 7.12502
rthumb 13.6395 -16.1561
lclavicle 7.7526e-015 5.56597e-014
lhumerus -42.1704 18.878 75.4528
lradius 75.4011
lwrist 12.4018
lhand -17.7153 -16.5226
lfingers 7.12502
lthumb 8.54508 13.2845
rfemur 11.9941 1.829 14.3471
rtibia 42.3654
rfoot -20.4623 -2.09853
rtoes -8.07952
lfemur -72.7831 6.7245 -31.0944
ltibia 106.82
lfoot 15.338 -3.62629
ltoes -21.4826
132
root 4.60851 16.7532 -0.685148 87.4113 -101.613 -119.3
lowerback 34.8037 1.89535 -1.88168
upperback 12.8203 -0.567945 -8.37611
thorax -3.72667 -0.810921 -7.60584
lowerneck 16.3489 6.74693 -0.765984
upperneck 30.0006 5.3551 6.69993
head 6.52735 2.00924 2.27382
rclavicle 3.95581e-014 -7.95139e-014
rhumerus -39.7759 -2.60478 -93.2082
rradius 32.1826
rwrist 12.1433
rhand -11.0262 12.9352
rfingers 7.12502
rthumb 14.9953 -16.5018
lclavicle 3.95581e-014 -7.95139e-014
lhumerus -41.2618 17.603 75.987
lradius 77.2888
lwrist 11.7114
lhand -17.6782 -16.7992
lfingers 7.12502
lthumb 8.58093 13.0065
rfemur 10.5954 1.65671 14.7237
rtibia 43.1189
rfoot -20.8732 -2.51269
rtoes -7.9223
lfemur -70.272 6.14295 -30.8008
ltibia 107.46
lfoot 13.9392 -3.47986
ltoes -21.8901
133
root 4.62443 16.743 -0.701819 90.898 -101.497 -121.86
lowerback 33.9509 1.63336 -1.88938
upperback 12.6687 -0.774366 -8.22395
thorax -3.60254 -0.893069 -7.36265
lowerneck 16.4765 6.7096 -0.875178
upperneck 29.5692 5.38779 6.50371
head 6.36302 2.01119 2.21435
rclavicle 1.78906e-014 4.92986e-014
rhumerus -40.3569 -2.94792 -92.8916
rradius 30.5307
rwrist 15.2065
rhand -9.66542 12.7888
rfingers 7.12502
rthumb 16.3058 -16.5456
lclavicle 1.78906e-014 4.92986e-014
lhumerus -40.3064 16.2969 76.4995
lradius 79.1124
lwrist 11.1205
lhand -17.8528 -16.8993
lfingers 7.12502
lthumb 8.41243 12.9131
rfemur 9.27796 1.45235 15.1088
rtibia 43.7272
rfoot -21.2431 -2.90348
rtoes -7.65846
lfemur -67.6976 5.49265 -30.4584
ltibia 107.929
lfoot 12.8965 -2.7908
ltoes -21.6879
